<?xml version="1.0" standalone="no"?>
<!DOCTYPE svg PUBLIC "-//W3C//DTD SVG 20010904//EN"
 "http://www.w3.org/TR/2001/REC-SVG-20010904/DTD/svg10.dtd">
<svg version="1.0" xmlns="http://www.w3.org/2000/svg"
 width="115.000000pt" height="115.000000pt" viewBox="0 0 115.000000 115.000000"
 preserveAspectRatio="xMidYMid meet">
<metadata>
Created by potrace 1.14, written by Peter Selinger 2001-2017
</metadata>
<g transform="translate(0.000000,115.000000) scale(0.100000,-0.100000)"
fill="#000000" stroke="none">
<path d="M500 1101 c-22 -15 -9 -19 40 -12 30 4 71 0 120 -11 41 -10 86 -21
100 -24 75 -16 118 -72 122 -162 2 -35 7 -52 16 -52 7 0 11 -4 7 -9 -3 -6 7
-25 23 -43 40 -45 42 -57 20 -100 -22 -45 -10 -51 15 -9 25 42 21 76 -13 115
-22 24 -34 52 -41 93 -13 75 -45 131 -87 156 -72 42 -288 81 -322 58z"/>
<path d="M425 1071 c-181 -82 -185 -87 -188 -212 -1 -43 -5 -79 -9 -79 -5 0
-7 -3 -6 -7 0 -5 -6 -25 -15 -45 -22 -48 -21 -73 0 -33 9 17 23 35 32 41 9 7
29 24 46 38 16 14 42 28 58 32 23 5 26 8 16 20 -6 8 -17 14 -23 14 -6 0 -6 -4
2 -9 10 -6 7 -10 -12 -13 -14 -3 -35 1 -46 9 -19 13 -20 12 -19 -14 1 -16 3
-21 6 -11 2 10 10 15 19 11 12 -4 12 -8 -3 -19 -31 -23 -35 -16 -32 64 3 81
15 126 32 115 6 -3 8 -2 5 3 -3 5 0 15 8 22 14 12 19 8 14 -13 -1 -5 2 -6 7
-2 4 5 8 14 8 20 0 7 10 12 22 11 12 0 20 2 18 6 -2 3 23 16 56 29 32 13 59
28 59 33 0 12 -10 10 -55 -11z"/>
<path d="M497 978 c-10 -5 -15 -13 -12 -18 5 -9 -7 -14 -62 -25 -35 -7 -55
-26 -35 -33 7 -2 12 -12 12 -22 0 -21 4 -25 42 -34 20 -4 26 -3 23 6 -4 9 6
14 30 15 19 1 35 -3 35 -8 0 -5 26 -9 58 -9 47 0 63 4 78 21 17 19 19 19 24 3
4 -10 15 -19 26 -20 10 -2 28 -4 38 -6 17 -2 21 4 24 38 2 25 -2 45 -10 51
-11 10 -126 25 -168 23 -48 -2 -66 2 -75 14 -8 10 -16 11 -28 4z m89 -44 c3 9
11 16 16 16 6 0 3 -11 -5 -24 -14 -21 -14 -26 -2 -36 11 -9 14 -6 17 12 3 22
4 21 20 -9 14 -28 14 -33 2 -33 -9 0 -13 4 -10 9 3 5 -11 8 -32 7 -35 -2 -38
0 -34 20 2 12 -1 25 -7 28 -6 4 -11 12 -11 18 0 6 9 3 20 -7 18 -16 20 -16 26
-1z m76 -24 c4 0 8 7 8 15 0 8 4 15 9 15 12 0 2 -38 -12 -47 -12 -7 -37 24
-36 46 0 11 4 8 11 -6 6 -13 15 -23 20 -23z m57 -2 c0 -27 -2 -29 -8 -13 -5
11 -6 26 -4 33 8 21 13 13 12 -20z m49 -13 c0 -14 -4 -28 -9 -31 -5 -3 -9 8
-9 23 0 16 -6 35 -12 42 -11 11 -9 12 8 3 14 -7 22 -21 22 -37z m-330 15 c-11
-17 -10 -22 1 -29 10 -6 10 -10 1 -16 -6 -4 -14 -4 -17 -1 -11 11 -10 51 1 58
20 14 26 8 14 -12z m62 4 c0 -2 -7 -4 -15 -4 -8 0 -15 4 -15 10 0 5 7 7 15 4
8 -4 15 -8 15 -10z m45 -3 c3 -5 1 -12 -5 -16 -5 -3 -10 1 -10 9 0 18 6 21 15
7z m-45 -27 c0 -2 -7 -4 -15 -4 -8 0 -15 4 -15 10 0 5 7 7 15 4 8 -4 15 -8 15
-10z"/>
<path d="M260 916 c0 -2 7 -7 16 -10 8 -3 12 -2 9 4 -6 10 -25 14 -25 6z"/>
<path d="M262 876 c1 -14 5 -23 9 -20 7 4 0 44 -7 44 -2 0 -3 -11 -2 -24z"/>
<path d="M300 860 c-8 -5 -12 -12 -9 -15 4 -3 12 1 19 10 14 17 11 19 -10 5z"/>
<path d="M810 691 c0 -5 12 -11 28 -14 43 -9 75 -42 70 -72 -3 -14 0 -29 6
-33 12 -8 32 -46 40 -77 3 -11 3 5 0 35 -3 31 -12 60 -20 67 -10 7 -12 13 -5
18 6 3 11 11 11 17 0 6 -3 8 -7 5 -3 -4 -16 2 -27 12 -25 24 -96 55 -96 42z"/>
<path d="M245 655 c-22 -9 -34 -10 -43 -2 -10 8 -12 4 -6 -19 3 -16 6 -46 5
-67 -1 -21 5 -60 13 -88 17 -55 16 -51 16 -80 0 -11 13 -32 30 -47 16 -15 31
-36 33 -47 5 -27 33 -85 52 -109 12 -17 17 -18 28 -6 8 8 8 11 0 6 -18 -10
-69 106 -72 164 -1 10 -4 11 -12 3 -6 -6 -18 -9 -25 -6 -12 4 -12 8 -2 20 10
12 9 18 -7 29 -10 8 -15 17 -11 21 4 4 12 -1 18 -11 14 -26 28 -2 21 38 -10
67 -10 87 -2 92 5 3 7 10 4 15 -22 35 -3 74 40 80 33 6 46 -8 33 -36 -6 -13
-16 -22 -21 -18 -6 4 -8 0 -4 -10 3 -10 3 -17 -2 -17 -4 0 -8 -13 -9 -30 0
-23 4 -30 18 -30 10 0 21 4 24 9 3 5 22 8 41 7 19 -1 37 4 39 10 3 8 -5 11
-24 8 -16 -3 -32 0 -36 7 -5 9 -2 10 10 6 14 -5 17 -3 13 8 -4 8 -1 17 5 21 6
4 8 3 4 -4 -8 -13 13 -28 23 -16 3 5 4 8 2 7 -2 -2 -10 5 -17 15 -12 16 -15
16 -43 0 -38 -21 -32 1 7 25 15 9 21 17 14 17 -18 0 -39 23 -35 36 7 21 -87
-2 -107 -27 -3 -3 -15 -12 -28 -18 -22 -12 -23 -11 -13 7 6 11 22 23 36 26 14
4 25 11 25 16 0 6 -1 10 -2 9 -2 0 -16 -7 -33 -14z m21 -75 c0 -20 -7 -25 -19
-14 -7 7 2 34 12 34 4 0 7 -9 7 -20z m-20 -68 c-18 -16 -18 -16 -6 6 6 13 14
21 18 18 3 -4 -2 -14 -12 -24z"/>
<path d="M786 615 c4 -8 11 -15 16 -15 6 0 5 6 -2 15 -7 8 -14 15 -16 15 -2 0
-1 -7 2 -15z"/>
<path d="M676 611 c-4 -6 -4 -11 0 -11 4 0 -1 -7 -12 -16 -18 -15 -18 -15 3
-5 16 8 22 7 27 -4 4 -10 14 -14 31 -11 14 3 25 1 25 -4 0 -5 6 -7 14 -4 8 3
24 1 35 -5 14 -8 22 -8 27 1 5 7 3 8 -6 3 -10 -6 -12 -4 -7 8 3 9 1 19 -5 23
-7 4 -8 3 -4 -4 11 -18 -3 -14 -37 10 -17 12 -28 17 -24 12 3 -6 -3 -15 -13
-22 -12 -7 -21 -8 -25 -2 -3 6 1 10 9 10 9 0 16 5 16 11 0 6 -6 9 -14 6 -7 -3
-18 -1 -24 5 -6 6 -12 6 -16 -1z"/>
<path d="M876 603 c-6 -14 -5 -15 5 -6 7 7 10 15 7 18 -3 3 -9 -2 -12 -12z"/>
<path d="M451 602 c0 -7 -5 -10 -11 -7 -5 3 -10 4 -10 1 0 -3 9 -10 19 -16 14
-7 22 -7 27 2 4 6 3 8 -4 4 -6 -3 -13 2 -15 11 -3 10 -5 12 -6 5z"/>
<path d="M870 569 c0 -5 5 -7 12 -3 7 5 8 3 2 -7 -12 -19 -14 -39 -4 -39 12 0
23 37 15 50 -8 13 -25 13 -25 -1z"/>
<path d="M780 544 c0 -5 -18 -9 -40 -8 -21 0 -37 -2 -35 -6 3 -4 25 -8 51 -8
25 -1 52 -6 58 -12 7 -5 16 -7 19 -3 13 12 7 23 -11 23 -10 0 -23 5 -30 12 -7
7 -12 8 -12 2z"/>
<path d="M902 518 c-7 -7 -12 -20 -12 -31 0 -10 -4 -16 -9 -12 -6 3 -9 -4 -8
-15 1 -12 7 -18 14 -16 7 3 10 -1 7 -8 -3 -8 -1 -17 5 -21 6 -3 11 1 11 9 0 9
5 16 11 16 7 0 9 -10 5 -25 -4 -14 -2 -25 4 -25 5 0 10 8 10 18 0 9 3 26 6 38
5 19 2 20 -27 16 l-33 -5 22 37 c21 35 18 48 -6 24z"/>
<path d="M330 479 c0 -5 5 -7 10 -4 6 3 10 8 10 11 0 2 -4 4 -10 4 -5 0 -10
-5 -10 -11z"/>
<path d="M510 459 c0 -6 5 -19 11 -30 10 -19 9 -19 -10 -9 -12 6 -21 15 -21
21 0 6 -4 7 -10 4 -5 -3 -10 -13 -10 -21 0 -8 5 -12 10 -9 6 3 10 1 10 -5 0
-6 4 -9 9 -6 5 3 14 -1 21 -9 16 -20 35 -19 51 3 7 9 9 14 4 9 -12 -10 -45 22
-45 45 0 10 -4 18 -10 18 -5 0 -10 -5 -10 -11z"/>
<path d="M354 405 c3 -8 9 -22 12 -30 3 -8 1 -15 -5 -15 -6 0 -11 7 -11 15 0
18 -20 20 -21 3 -4 -41 1 -79 12 -100 7 -12 14 -27 14 -33 1 -5 6 -9 13 -7 7
1 12 -2 12 -8 0 -5 4 -10 10 -10 5 0 1 24 -10 53 l-20 52 20 -25 c11 -14 25
-31 30 -37 6 -7 8 -13 5 -13 -3 0 -1 -9 5 -20 6 -11 18 -20 26 -20 8 0 12 5 9
10 -10 16 1 11 16 -7 10 -11 10 -14 2 -9 -9 5 -13 1 -13 -11 0 -15 -2 -16 -10
-3 -8 13 -11 13 -22 1 -11 -11 -11 -13 1 -6 11 6 13 3 8 -15 -4 -17 -3 -20 6
-11 16 16 27 14 21 -4 -4 -10 0 -15 11 -15 12 0 15 5 11 16 -4 10 1 26 11 37
11 12 12 17 4 12 -11 -6 -13 -4 -8 8 4 11 2 14 -9 10 -7 -3 -14 0 -14 6 0 6
-6 11 -14 11 -8 0 -25 17 -37 38 -13 20 -26 38 -30 40 -4 2 -6 14 -3 27 2 13
0 27 -6 30 -5 3 -10 15 -10 26 0 10 -5 19 -11 19 -6 0 -8 -7 -5 -15z"/>
<path d="M615 410 c4 -6 11 -8 16 -5 14 9 11 15 -7 15 -8 0 -12 -5 -9 -10z"/>
<path d="M809 393 c-1 -5 -1 -11 0 -15 0 -5 -3 -8 -8 -8 -4 0 -7 -12 -7 -27 1
-16 -3 -34 -8 -41 -5 -7 -6 -15 -2 -19 9 -9 14 -1 20 32 3 17 8 42 12 58 3 15
3 27 0 27 -3 0 -7 -3 -7 -7z"/>
<path d="M743 376 c1 -11 9 -21 17 -23 10 -3 11 -2 4 4 -6 4 -14 15 -17 23 -5
11 -6 9 -4 -4z"/>
<path d="M859 378 c-6 -21 -5 -38 2 -38 5 0 9 9 9 20 0 16 -7 28 -11 18z"/>
<path d="M880 366 c0 -2 7 -6 15 -10 8 -3 15 -1 15 4 0 6 -7 10 -15 10 -8 0
-15 -2 -15 -4z"/>
<path d="M609 341 c-31 -3 -84 -6 -118 -5 -33 1 -61 -2 -61 -6 0 -11 49 -22
62 -14 6 4 8 3 5 -3 -4 -6 3 -13 14 -16 15 -4 19 -2 15 9 -7 19 4 18 20 -3 13
-17 14 -17 7 2 -6 17 -5 18 9 7 12 -10 17 -10 20 -1 2 7 18 12 35 11 18 0 37
6 44 14 6 8 10 13 8 13 -2 -1 -29 -5 -60 -8z"/>
<path d="M670 326 c-6 -6 -23 -11 -38 -12 -15 -1 -31 -3 -37 -3 -5 -1 -4 -5 4
-10 8 -5 24 -7 35 -4 12 2 27 5 34 5 6 1 12 5 12 10 0 4 9 8 19 8 11 0 23 4
26 10 8 13 -42 9 -55 -4z"/>
<path d="M516 243 c-6 -14 -5 -15 5 -6 7 7 10 15 7 18 -3 3 -9 -2 -12 -12z"/>
<path d="M555 250 c-3 -5 -1 -10 4 -10 6 0 11 5 11 10 0 6 -2 10 -4 10 -3 0
-8 -4 -11 -10z"/>
<path d="M716 224 c-3 -9 -3 -20 0 -25 3 -6 0 -18 -7 -27 -11 -15 -11 -15 1
-4 8 7 15 26 16 42 2 34 -1 37 -10 14z"/>
<path d="M804 215 c-4 -10 -10 -12 -18 -6 -8 7 -12 1 -12 -20 l-2 -29 24 27
c23 27 30 43 19 43 -3 0 -8 -7 -11 -15z"/>
<path d="M380 170 c0 -6 7 -10 15 -10 8 0 15 2 15 4 0 2 -7 6 -15 10 -8 3 -15
1 -15 -4z"/>
<path d="M499 175 c-1 -6 -2 -16 -3 -23 0 -7 -8 -17 -16 -22 -9 -6 -10 -10 -3
-10 6 0 15 5 18 10 4 6 10 8 15 5 17 -10 22 17 6 33 -9 9 -17 12 -17 7z"/>
<path d="M681 164 c0 -11 3 -14 6 -6 3 7 2 16 -1 19 -3 4 -6 -2 -5 -13z"/>
<path d="M480 110 c-13 -8 -12 -10 3 -10 12 0 16 -4 11 -12 -4 -7 3 -4 16 7
l23 20 -16 -25 c-16 -25 -16 -25 14 -25 26 -1 28 1 14 11 -8 6 -14 18 -13 25
4 17 -32 23 -52 9z"/>
<path d="M655 80 c-3 -6 1 -7 9 -4 18 7 21 14 7 14 -6 0 -13 -4 -16 -10z"/>
</g>
</svg>
