<?xml version="1.0" standalone="no"?>
<!DOCTYPE svg PUBLIC "-//W3C//DTD SVG 20010904//EN"
 "http://www.w3.org/TR/2001/REC-SVG-20010904/DTD/svg10.dtd">
<svg version="1.0" xmlns="http://www.w3.org/2000/svg"
 width="102.000000pt" height="102.000000pt" viewBox="0 0 102.000000 102.000000"
 preserveAspectRatio="xMidYMid meet">
<metadata>
Created by potrace 1.14, written by Peter Selinger 2001-2017
</metadata>
<g transform="translate(0.000000,102.000000) scale(0.100000,-0.100000)"
fill="#000000" stroke="none">
<path d="M455 990 c-57 -11 -206 -82 -230 -110 -16 -18 -20 -38 -22 -107 -1
-60 -7 -90 -17 -102 -25 -27 -31 -76 -12 -102 12 -17 13 -26 4 -36 -8 -11 -8
-34 1 -95 14 -93 27 -125 53 -133 10 -4 18 -13 18 -21 0 -19 50 -118 56 -111
3 2 -4 22 -15 43 -11 22 -23 56 -26 77 -4 20 -11 40 -16 43 -5 3 -8 2 -7 -3 2
-4 -1 -9 -7 -10 -5 -2 -10 2 -9 7 1 6 2 18 3 28 1 15 3 15 11 2 7 -11 9 -8 9
15 -1 43 -13 78 -27 83 -6 2 -12 -4 -12 -13 0 -9 -4 -14 -10 -10 -17 10 2 37
22 32 17 -5 19 0 18 36 -3 65 -2 66 38 73 20 4 44 10 52 15 23 13 -37 11 -63
-2 -19 -9 -18 -7 3 10 28 24 136 60 184 62 28 2 29 2 5 6 -37 6 -142 -23 -211
-58 -81 -41 -104 -22 -52 40 67 79 206 116 409 108 126 -4 178 -19 223 -60 23
-21 30 -61 12 -72 -5 -3 -10 -15 -10 -26 0 -23 -13 -24 -35 -3 -17 18 -106 44
-145 43 -14 0 8 -9 47 -19 40 -11 81 -27 91 -37 19 -19 24 -54 7 -50 -5 1 -8
11 -7 22 2 16 1 17 -6 5 -5 -8 -12 -51 -14 -95 -3 -44 -3 -74 0 -67 3 10 8 8
18 -5 12 -16 15 -16 24 -3 9 11 10 7 5 -17 -4 -19 -2 -33 3 -33 16 0 23 64 11
99 -13 36 -30 36 -41 0 -5 -15 -6 -7 -2 21 3 25 11 48 18 52 7 4 19 26 26 50
8 24 20 53 27 64 15 24 4 65 -27 99 -10 11 -21 40 -25 65 -19 119 -53 151
-203 189 -87 23 -87 23 -147 11z m1 -19 c-3 -5 12 -4 34 1 32 8 55 6 119 -11
143 -39 171 -65 171 -163 0 -38 3 -49 10 -38 8 12 10 11 10 -8 0 -20 -2 -22
-22 -11 -13 7 -36 15 -53 19 -26 5 -30 11 -33 43 -4 49 -23 58 -133 60 -60 1
-92 6 -98 15 -9 15 -41 5 -41 -13 0 -8 -17 -16 -40 -20 -45 -8 -57 -19 -40
-40 7 -8 10 -22 6 -30 -3 -9 -2 -13 4 -10 6 3 10 2 10 -3 0 -6 -15 -13 -33
-16 -18 -3 -49 -15 -70 -26 -20 -11 -39 -20 -42 -20 -10 0 -4 116 8 150 13 37
67 74 75 52 2 -7 8 -12 13 -12 6 0 8 3 6 8 -5 7 12 27 26 30 4 1 20 8 36 17
17 8 36 13 43 12 7 -2 9 -2 4 1 -4 2 -2 8 5 13 18 11 32 11 25 0z m39 -131 c5
-8 12 -7 22 2 14 11 15 10 9 -10 -5 -14 -3 -29 4 -37 10 -12 9 -15 -4 -15 -9
0 -16 6 -17 13 0 10 -2 10 -6 0 -8 -21 -22 -15 -16 7 3 11 0 27 -7 35 -8 10
-9 15 -2 15 6 0 14 -5 17 -10z m75 -5 c0 -8 5 -15 10 -15 6 0 10 7 10 15 0 8
4 15 9 15 12 0 2 -38 -12 -47 -5 -3 -16 2 -24 12 -16 22 -17 35 -3 35 6 0 10
-7 10 -15z m-145 -5 c-3 -5 0 -10 7 -10 10 0 10 -2 -1 -9 -11 -7 -9 -10 10
-14 23 -4 22 -4 -3 -6 -24 -1 -28 3 -28 24 0 14 5 25 11 25 5 0 7 -4 4 -10z
m253 -22 c2 -16 -1 -28 -7 -28 -6 0 -11 11 -11 25 0 14 -4 25 -10 25 -5 0 -10
-9 -10 -20 0 -11 -4 -20 -10 -20 -5 0 -10 12 -10 26 0 22 4 25 28 22 21 -2 28
-9 30 -30z m-295 6 c-3 -9 0 -20 8 -25 11 -7 9 -9 -7 -9 -15 0 -23 8 -26 25
-4 19 -1 25 13 25 13 0 16 -5 12 -16z m175 -14 c7 -11 9 -20 4 -20 -4 0 -13 9
-20 20 -7 11 -9 20 -4 20 4 0 13 -9 20 -20z m-91 -26 c-3 -3 -12 -4 -19 -1 -8
3 -5 6 6 6 11 1 17 -2 13 -5z m-44 -11 c-7 -2 -21 -2 -30 0 -10 3 -4 5 12 5
17 0 24 -2 18 -5z m-208 -202 c-3 -6 -11 -11 -17 -11 -6 0 -6 6 2 15 14 17 26
13 15 -4z m12 -42 c2 -18 0 -19 -14 -7 -14 11 -16 11 -10 -4 4 -12 2 -15 -9
-11 -18 7 -18 13 4 29 23 18 27 17 29 -7z m-40 -51 c-3 -8 -6 -5 -6 6 -1 11 2
17 5 13 3 -3 4 -12 1 -19z m626 -33 c-3 -9 -8 -14 -10 -11 -3 3 -2 9 2 15 9
16 15 13 8 -4z m-595 -76 c-3 -20 -5 -19 -9 9 -3 20 -2 29 4 23 5 -5 7 -19 5
-32z"/>
<path d="M226 823 c-8 -52 -8 -118 1 -109 7 7 16 146 9 146 -2 0 -6 -17 -10
-37z"/>
<path d="M556 671 c39 -5 90 -11 115 -15 33 -5 38 -4 22 4 -13 5 -64 11 -115
14 -87 5 -88 4 -22 -3z"/>
<path d="M585 580 c-3 -6 0 -10 7 -11 61 -2 91 -8 100 -17 7 -7 17 -12 22 -12
6 0 0 10 -14 23 -26 23 -104 35 -115 17z"/>
<path d="M320 562 c0 -11 -7 -23 -16 -26 -26 -10 -34 -7 -28 12 5 14 4 15 -5
2 -8 -11 -7 -18 4 -26 8 -6 13 -13 11 -15 -2 -2 -6 -16 -10 -31 -6 -26 -5 -26
37 -22 59 7 115 23 123 35 4 8 0 8 -14 0 -24 -13 -92 -15 -92 -3 0 5 14 9 32
10 17 0 34 6 38 12 4 6 13 9 21 7 8 -2 11 -2 6 0 -4 3 -4 10 -1 15 10 16 -72
1 -100 -17 -20 -13 -23 -13 -23 0 0 8 4 12 9 9 4 -3 20 4 34 15 15 12 38 21
51 21 14 0 21 4 18 10 -8 13 -52 13 -60 0 -5 -8 -11 -7 -21 1 -11 9 -14 8 -14
-9z m0 -86 c0 -2 -7 -7 -16 -10 -8 -3 -12 -2 -9 4 6 10 25 14 25 6z"/>
<path d="M600 540 c23 -7 23 -8 3 -9 -12 -1 -25 -6 -29 -12 -4 -7 0 -9 14 -5
11 4 23 2 27 -4 4 -6 16 -8 27 -4 11 3 18 2 15 -2 -3 -5 16 -9 41 -10 26 0 41
1 35 3 -7 3 -13 12 -13 21 0 13 -2 14 -9 3 -6 -10 -10 -10 -16 -1 -4 6 -14 9
-22 6 -9 -4 -11 -2 -7 6 5 8 2 9 -9 5 -10 -3 -17 -2 -17 3 0 6 -15 10 -32 9
-31 -1 -32 -1 -8 -9z"/>
<path d="M455 510 c0 -16 3 -30 6 -30 9 0 17 32 12 48 -8 22 -18 12 -18 -18z"/>
<path d="M530 517 c0 -24 17 -47 34 -47 5 0 2 8 -7 18 -22 24 -21 39 1 45 13
4 11 5 -5 6 -18 1 -23 -4 -23 -22z"/>
<path d="M825 520 c-3 -5 -1 -18 4 -27 9 -16 10 -14 11 10 0 28 -5 34 -15 17z"/>
<path d="M490 490 c-1 -8 -2 -20 -1 -27 1 -7 -5 -28 -14 -49 -8 -20 -12 -40
-9 -46 3 -5 -3 -4 -15 3 -15 10 -19 20 -14 39 5 23 4 24 -12 9 -18 -17 -13
-59 6 -59 6 0 17 -6 25 -14 11 -11 11 -16 1 -19 -6 -3 0 -6 16 -6 15 -1 27 4
27 12 0 8 4 7 10 -3 9 -13 11 -13 20 0 7 12 3 16 -23 21 -22 5 -25 7 -9 8 12
0 22 6 22 12 0 6 -6 9 -14 6 -18 -7 -29 20 -13 30 8 5 10 23 6 53 -3 25 -7 38
-9 30z"/>
<path d="M800 490 c0 -5 5 -10 11 -10 5 0 7 5 4 10 -3 6 -8 10 -11 10 -2 0 -4
-4 -4 -10z"/>
<path d="M588 478 c4 -3 32 -8 62 -9 30 -2 60 -7 65 -11 6 -4 17 -3 24 1 9 6
10 11 2 15 -15 9 -162 13 -153 4z"/>
<path d="M303 443 c-7 -2 -13 -9 -13 -14 0 -6 5 -7 10 -4 6 4 10 -10 10 -34 0
-31 -4 -41 -16 -41 -29 0 2 -126 37 -148 14 -9 13 0 -8 60 -18 50 -21 74 -14
81 8 8 11 3 11 -19 0 -16 13 -51 28 -79 21 -38 33 -50 50 -49 12 1 22 -3 22
-7 0 -5 -9 -9 -20 -9 -28 0 -25 -12 10 -48 32 -34 38 -47 18 -37 -7 4 -2 -3
11 -14 25 -22 51 -28 51 -11 0 6 -5 10 -11 10 -5 0 -7 5 -4 10 3 6 1 10 -4 10
-6 0 -11 7 -11 16 0 10 -6 14 -15 10 -8 -3 -15 -1 -15 3 0 5 7 11 15 15 8 3
15 11 15 17 0 8 -7 6 -18 -4 -21 -19 -32 -22 -32 -7 0 6 6 10 14 10 7 0 16 9
19 21 3 12 3 19 0 16 -3 -3 -14 3 -26 13 -11 11 -24 17 -29 14 -4 -3 -8 1 -8
10 0 8 -6 16 -12 19 -21 7 -1 20 29 19 16 0 57 -3 92 -7 48 -4 77 -1 113 12
26 9 48 20 48 25 0 4 -59 5 -131 3 -138 -4 -159 -1 -159 20 0 8 -4 16 -9 19
-18 11 2 -35 21 -48 18 -13 18 -14 -2 -19 -16 -4 -21 1 -26 21 -3 15 -8 34
-11 42 -12 36 -14 82 -3 95 10 12 10 15 -1 14 -8 0 -20 -3 -26 -6z m197 -163
c0 -5 -2 -10 -4 -10 -3 0 -8 5 -11 10 -3 6 -1 10 4 10 6 0 11 -4 11 -10z m30
0 c0 -5 -4 -10 -10 -10 -5 0 -10 5 -10 10 0 6 5 10 10 10 6 0 10 -4 10 -10z"/>
<path d="M450 408 c0 -19 2 -20 10 -8 13 19 13 30 0 30 -5 0 -10 -10 -10 -22z"/>
<path d="M583 417 c0 -7 -3 -22 -7 -34 -5 -14 -3 -23 3 -23 6 0 11 11 11 24 0
13 5 26 12 28 8 3 7 6 -3 10 -9 3 -16 1 -16 -5z"/>
<path d="M622 384 c17 -20 78 -59 78 -50 0 2 -21 19 -47 37 -27 17 -40 23 -31
13z"/>
<path d="M535 370 c3 -5 10 -10 16 -10 5 0 9 5 9 10 0 6 -7 10 -16 10 -8 0
-12 -4 -9 -10z"/>
<path d="M761 345 c-1 -22 -8 -56 -15 -75 -26 -68 -26 -74 -1 -23 19 39 25 64
22 95 l-4 43 -2 -40z"/>
<path d="M704 313 c-4 -27 -11 -58 -15 -70 -5 -14 -5 -23 1 -23 5 0 12 12 15
28 3 15 10 43 15 63 12 45 12 49 1 49 -6 0 -13 -21 -17 -47z"/>
<path d="M635 340 c-4 -6 -1 -9 6 -8 7 2 18 -8 25 -20 6 -13 14 -20 17 -15 7
11 -20 53 -33 53 -5 0 -12 -5 -15 -10z"/>
<path d="M788 323 c6 -2 18 -2 25 0 6 3 1 5 -13 5 -14 0 -19 -2 -12 -5z"/>
<path d="M450 241 c0 -13 29 -35 37 -28 3 4 12 2 20 -4 8 -7 13 -8 13 -1 0 5
10 8 23 5 12 -3 19 -2 14 2 -7 8 -26 12 -77 15 -23 1 -23 2 -5 10 19 8 19 9
-2 9 -13 1 -23 -3 -23 -8z"/>
<path d="M548 243 c7 -3 16 -2 19 1 4 3 -2 6 -13 5 -11 0 -14 -3 -6 -6z"/>
<path d="M633 225 c-9 -24 1 -27 15 -5 8 13 8 20 2 20 -6 0 -13 -7 -17 -15z"/>
<path d="M625 180 c10 -11 20 -20 23 -20 3 0 -3 9 -13 20 -10 11 -20 20 -23
20 -3 0 3 -9 13 -20z"/>
<path d="M690 190 c-12 -8 -10 -10 8 -10 13 0 20 4 17 10 -7 12 -6 12 -25 0z"/>
<path d="M320 174 c0 -5 11 -21 24 -36 14 -14 23 -28 20 -30 -2 -3 3 -5 11 -5
11 0 8 9 -12 31 -15 17 -31 35 -35 41 -5 5 -8 5 -8 -1z"/>
<path d="M677 152 c-19 -20 -23 -37 -7 -27 10 6 33 45 27 45 -2 0 -11 -8 -20
-18z"/>
<path d="M596 136 c-10 -16 -12 -27 -6 -31 6 -4 10 -3 9 2 -4 16 13 43 24 36
6 -3 7 -1 3 5 -10 16 -11 16 -30 -12z"/>
<path d="M465 140 c-3 -5 -1 -10 4 -10 6 0 11 5 11 10 0 6 -2 10 -4 10 -3 0
-8 -4 -11 -10z"/>
<path d="M397 69 c7 -7 15 -10 18 -7 3 3 -2 9 -12 12 -14 6 -15 5 -6 -5z"/>
<path d="M436 49 c6 -11 49 -16 70 -9 13 5 5 8 -28 11 -25 2 -44 1 -42 -2z"/>
</g>
</svg>
